<svg width="21" height="21" viewBox="0 0 21 21" fill="none" xmlns="http://www.w3.org/2000/svg">
<path fill-rule="evenodd" clip-rule="evenodd" d="M7.71594 0.700012C7.71594 0.313406 7.40254 -1.68984e-08 7.01593 0C6.62933 1.68984e-08 6.31592 0.313406 6.31592 0.700012V1.04231C5.48502 1.13138 4.789 1.29717 4.15574 1.61983C2.9703 2.22384 2.0065 3.18764 1.40249 4.37308C1.03864 5.08717 0.874276 5.88107 0.794442 6.85819C0.715814 7.82055 0.715817 9.02028 0.71582 10.5616V10.5933V11.34V11.3717C0.715817 12.913 0.715814 14.1128 0.794442 15.0751C0.874276 16.0523 1.03864 16.8462 1.40249 17.5603C2.0065 18.7457 2.9703 19.7095 4.15574 20.3135C4.86983 20.6773 5.66374 20.8417 6.64085 20.9216C7.60323 21.0002 8.80297 21.0002 10.3444 21.0002H10.376H11.1227H11.1543C12.6957 21.0002 13.8954 21.0002 14.8578 20.9216C15.8349 20.8417 16.6288 20.6773 17.3429 20.3135C18.5284 19.7095 19.4922 18.7457 20.0962 17.5603C20.46 16.8462 20.6244 16.0523 20.7042 15.0751C20.7828 14.1128 20.7828 12.913 20.7828 11.3716V11.34V10.5933V10.5617C20.7828 9.0203 20.7828 7.82056 20.7042 6.85819C20.6244 5.88107 20.46 5.08717 20.0962 4.37308C19.4922 3.18764 18.5284 2.22384 17.3429 1.61983C16.7099 1.29727 16.0141 1.13148 15.1835 1.04239V0.700012C15.1835 0.313406 14.8701 -1.68984e-08 14.4835 0C14.0969 1.68984e-08 13.7835 0.313406 13.7835 0.700012V0.955568C13.0353 0.933153 12.1688 0.933155 11.1543 0.933158H11.1227H10.376H10.3443C9.3302 0.933155 8.46398 0.933153 7.71594 0.955545V0.700012ZM13.7835 3.50006V2.35617C13.0561 2.33343 12.1889 2.33318 11.1227 2.33318H10.376C9.31012 2.33318 8.4432 2.33343 7.71594 2.35615V3.50006C7.71594 3.88667 7.40254 4.20007 7.01593 4.20007C6.62933 4.20007 6.31592 3.88667 6.31592 3.50006V2.45157C5.66228 2.53218 5.1909 2.66367 4.79134 2.86726C3.86933 3.33705 3.11971 4.08667 2.64992 5.00868C2.4034 5.49251 2.26258 6.08166 2.18982 6.9722C2.11639 7.87091 2.11584 9.0136 2.11584 10.5933V11.34C2.11584 12.9197 2.11639 14.0624 2.18982 14.9611C2.26258 15.8517 2.4034 16.4408 2.64992 16.9247C3.11971 17.8467 3.86933 18.5963 4.79134 19.0661C5.27517 19.3126 5.86432 19.4534 6.75486 19.5262C7.65357 19.5996 8.79627 19.6001 10.376 19.6001H11.1227C12.7024 19.6001 13.8451 19.5996 14.7438 19.5262C15.6343 19.4534 16.2235 19.3126 16.7073 19.0661C17.6293 18.5963 18.379 17.8467 18.8487 16.9247C19.0953 16.4408 19.2361 15.8517 19.3088 14.9611C19.3823 14.0624 19.3828 12.9197 19.3828 11.34V10.5933C19.3828 9.0136 19.3823 7.87091 19.3088 6.9722C19.2361 6.08166 19.0953 5.49251 18.8487 5.00868C18.379 4.08667 17.6293 3.33705 16.7073 2.86726C16.3079 2.66375 15.8367 2.53228 15.1835 2.45166V3.50006C15.1835 3.88667 14.8701 4.20007 14.4835 4.20007C14.0969 4.20007 13.7835 3.88667 13.7835 3.50006ZM6.08335 6.53326C5.69674 6.53326 5.38334 6.84666 5.38334 7.23327C5.38334 7.61987 5.69674 7.93328 6.08335 7.93328H15.4168C15.8035 7.93328 16.1169 7.61987 16.1169 7.23327C16.1169 6.84666 15.8035 6.53326 15.4168 6.53326H6.08335ZM7.95005 11.8998C7.95005 12.4153 7.53217 12.8332 7.0167 12.8332C6.50122 12.8332 6.08335 12.4153 6.08335 11.8998C6.08335 11.3843 6.50122 10.9665 7.0167 10.9665C7.53217 10.9665 7.95005 11.3843 7.95005 11.8998ZM7.0167 16.567C7.53217 16.567 7.95005 16.1491 7.95005 15.6336C7.95005 15.1181 7.53217 14.7003 7.0167 14.7003C6.50122 14.7003 6.08335 15.1181 6.08335 15.6336C6.08335 16.1491 6.50122 16.567 7.0167 16.567ZM11.6827 15.6336C11.6827 16.1491 11.2648 16.567 10.7493 16.567C10.2339 16.567 9.81598 16.1491 9.81598 15.6336C9.81598 15.1181 10.2339 14.7003 10.7493 14.7003C11.2648 14.7003 11.6827 15.1181 11.6827 15.6336ZM14.4831 16.567C14.9986 16.567 15.4165 16.1491 15.4165 15.6336C15.4165 15.1181 14.9986 14.7003 14.4831 14.7003C13.9676 14.7003 13.5498 15.1181 13.5498 15.6336C13.5498 16.1491 13.9676 16.567 14.4831 16.567ZM11.6827 11.8998C11.6827 12.4153 11.2648 12.8332 10.7493 12.8332C10.2339 12.8332 9.81598 12.4153 9.81598 11.8998C9.81598 11.3843 10.2339 10.9665 10.7493 10.9665C11.2648 10.9665 11.6827 11.3843 11.6827 11.8998ZM14.4831 12.8332C14.9986 12.8332 15.4165 12.4153 15.4165 11.8998C15.4165 11.3843 14.9986 10.9665 14.4831 10.9665C13.9676 10.9665 13.5498 11.3843 13.5498 11.8998C13.5498 12.4153 13.9676 12.8332 14.4831 12.8332Z" fill="#9CA3AF"/>
</svg>
