<svg width="16" height="16" viewBox="0 0 16 16" fill="none" xmlns="http://www.w3.org/2000/svg">
<path d="M3.33301 6.66683H4.66634C5.99967 6.66683 6.66634 6.00016 6.66634 4.66683V3.3335C6.66634 2.00016 5.99967 1.3335 4.66634 1.3335H3.33301C1.99967 1.3335 1.33301 2.00016 1.33301 3.3335V4.66683C1.33301 6.00016 1.99967 6.66683 3.33301 6.66683Z" stroke="#1F2937" stroke-width="1.35" stroke-miterlimit="10" stroke-linecap="round" stroke-linejoin="round"/>
<path d="M11.333 6.66683H12.6663C13.9997 6.66683 14.6663 6.00016 14.6663 4.66683V3.3335C14.6663 2.00016 13.9997 1.3335 12.6663 1.3335H11.333C9.99967 1.3335 9.33301 2.00016 9.33301 3.3335V4.66683C9.33301 6.00016 9.99967 6.66683 11.333 6.66683Z" stroke="#1F2937" stroke-width="1.35" stroke-miterlimit="10" stroke-linecap="round" stroke-linejoin="round"/>
<path d="M11.333 14.6668H12.6663C13.9997 14.6668 14.6663 14.0002 14.6663 12.6668V11.3335C14.6663 10.0002 13.9997 9.3335 12.6663 9.3335H11.333C9.99967 9.3335 9.33301 10.0002 9.33301 11.3335V12.6668C9.33301 14.0002 9.99967 14.6668 11.333 14.6668Z" stroke="#1F2937" stroke-width="1.35" stroke-miterlimit="10" stroke-linecap="round" stroke-linejoin="round"/>
<path d="M3.33301 14.6668H4.66634C5.99967 14.6668 6.66634 14.0002 6.66634 12.6668V11.3335C6.66634 10.0002 5.99967 9.3335 4.66634 9.3335H3.33301C1.99967 9.3335 1.33301 10.0002 1.33301 11.3335V12.6668C1.33301 14.0002 1.99967 14.6668 3.33301 14.6668Z" stroke="#1F2937" stroke-width="1.35" stroke-miterlimit="10" stroke-linecap="round" stroke-linejoin="round"/>
</svg>
