<svg width="24" height="24" viewBox="0 0 24 24" fill="none" xmlns="http://www.w3.org/2000/svg">
<path d="M23.4368 10.6446L21.6123 8.8201C21.3003 8.50802 21.0482 7.89587 21.0482 7.46376V4.87112C21.0482 3.81485 20.184 2.95064 19.1277 2.95064H16.5471C16.115 2.95064 15.5028 2.69858 15.1908 2.3865L13.3663 0.562045C12.6221 -0.18214 11.3978 -0.18214 10.6536 0.562045L8.80516 2.3865C8.50509 2.69858 7.89294 2.95064 7.44883 2.95064H4.86819C3.81192 2.95064 2.94771 3.81485 2.94771 4.87112V7.45176C2.94771 7.88386 2.69565 8.49602 2.38357 8.80809L0.559115 10.6325C-0.18507 11.3767 -0.18507 12.601 0.559115 13.3452L2.38357 15.1697C2.69565 15.4818 2.94771 16.0939 2.94771 16.526V19.1067C2.94771 20.1629 3.81192 21.0271 4.86819 21.0271H7.44883C7.88093 21.0271 8.49309 21.2792 8.80516 21.5913L10.6296 23.4157C11.3738 24.1599 12.5981 24.1599 13.3423 23.4157L15.1667 21.5913C15.4788 21.2792 16.091 21.0271 16.5231 21.0271H19.1037C20.16 21.0271 21.0242 20.1629 21.0242 19.1067V16.526C21.0242 16.0939 21.2763 15.4818 21.5883 15.1697L23.4128 13.3452C24.193 12.613 24.193 11.3887 23.4368 10.6446ZM7.19676 8.39999C7.19676 7.73983 7.7369 7.19969 8.39706 7.19969C9.05723 7.19969 9.59736 7.73983 9.59736 8.39999C9.59736 9.06016 9.06923 9.60029 8.39706 9.60029C7.7369 9.60029 7.19676 9.06016 7.19676 8.39999ZM9.03322 16.2379C8.85318 16.418 8.62512 16.502 8.39706 16.502C8.16901 16.502 7.94095 16.418 7.76091 16.2379C7.41282 15.8899 7.41282 15.3137 7.76091 14.9656L14.9627 7.76383C15.3108 7.41575 15.8869 7.41575 16.235 7.76383C16.5831 8.11192 16.5831 8.68806 16.235 9.03615L9.03322 16.2379ZM15.5989 16.8021C14.9267 16.8021 14.3866 16.2619 14.3866 15.6018C14.3866 14.9416 14.9267 14.4015 15.5869 14.4015C16.247 14.4015 16.7871 14.9416 16.7871 15.6018C16.7871 16.2619 16.259 16.8021 15.5989 16.8021Z" fill="#595AD2"/>
</svg>
