<svg width="25" height="24" viewBox="0 0 25 24" fill="none" xmlns="http://www.w3.org/2000/svg">
<g clip-path="url(#clip0_11678_1161)">
<g clip-path="url(#clip1_11678_1161)">
<path d="M13.5308 14.2236H14.4437L15.3566 14.312L16.1811 14.4592L16.9762 14.6654L17.7419 14.9304L18.4192 15.2249L19.1554 15.5782L19.921 15.9905L20.5394 16.3733L20.8928 16.6089L21.364 16.9328L22.1885 17.5512L22.1591 17.6985L21.8057 18.1107L21.7173 18.2285L21.5701 18.1991L21.1284 17.8752L20.5983 17.5512L20.0977 17.2568L19.4204 16.9034L18.6253 16.55L17.8302 16.2555L17.0646 16.02L16.2989 15.8433L15.5038 15.7255L15.2094 15.696H13.7959L13.0891 15.7844L12.3824 15.9316L10.4388 16.4911L8.5836 17.0506L7.37623 17.3746L6.28666 17.6101L5.40323 17.7574L4.43145 17.8752L3.7247 17.9341H3.31243L3.22409 17.669L3.13574 17.2862V17.1979L3.37133 17.139L4.49034 16.9623L5.55047 16.7267L6.72838 16.3733L7.90629 15.9316L9.202 15.4015L9.96764 15.1071L10.9689 14.7537L11.9701 14.4592L12.6768 14.312L13.5308 14.2236Z" fill="#595AD2" stroke="#595AD2" stroke-width="0.25"/>
<path d="M13.9132 17.1973H15.0911L15.8273 17.2856L16.6224 17.4623L17.4175 17.7273L18.2715 18.1396L18.8604 18.493L19.3316 18.8169L19.685 19.0819L20.0089 19.347L20.4212 19.7003L21.3046 20.5838L21.1279 20.8194L20.9218 21.0549L20.7745 21.2316L20.6567 21.1727L20.2739 20.8194L20.0383 20.6132L19.7144 20.3482L19.2138 19.9654L18.6837 19.612L18.0359 19.2586L17.4175 18.9936L16.8874 18.8169L16.2396 18.6697L15.5917 18.5813H14.2665L13.5009 18.6697L12.6469 18.8463L11.5279 19.1703L10.4972 19.4942L9.37821 19.877L8.28863 20.2304L7.37575 20.466L6.55121 20.6132L5.78557 20.7016L4.90213 20.7605H4.60765L4.51931 20.5543L4.37207 20.0537V19.9948L4.6371 19.9359L5.72667 19.7592L6.52176 19.5825L7.25796 19.3764L7.96471 19.1408L9.05428 18.6991L9.84937 18.3457L10.88 17.9335L11.6162 17.6684L12.4408 17.4328L13.1475 17.2856L13.9132 17.1973Z" fill="#595AD2" stroke="#595AD2" stroke-width="0.25"/>
<path d="M18.4776 1.2373L18.6249 1.26675L19.096 1.47289L19.1549 1.56123L18.7132 2.85694L18.3304 3.91706L17.977 4.88884L17.6825 5.74283L16.8875 7.95142L16.858 8.06921L20.7746 6.56737L21.2163 6.39068L21.3341 6.42013L21.5697 6.80295L21.6286 6.89129L21.5991 7.00908L20.9218 7.39191L20.2151 7.77473L19.5378 8.15755L18.7721 8.56982L18.0948 8.95264L17.5353 9.24712L16.858 9.62994L16.2396 9.95387L15.7095 10.2483L15.5328 10.3367L15.3856 10.2778L15.1795 10.0717L14.9439 9.86553L14.6494 9.6005L14.7083 9.42381L15.0617 8.65816L15.5034 7.68639L15.7095 7.21522L16.3279 5.89007L16.5341 5.4189L16.7402 4.97718L17.2997 3.76982L17.7709 2.73915L18.1832 1.85571L18.4482 1.26675L18.4776 1.2373Z" fill="#595AD2" stroke="#595AD2" stroke-width="0.25"/>
<path d="M7.43441 3.26855H7.52276L7.93503 4.0342L8.2295 4.56426L8.64177 5.3299L9.0246 6.00721L9.43687 6.77285L9.81969 7.45015L10.2614 8.27469L10.6148 8.92254L10.8504 9.33481L10.8209 9.48205L10.5559 9.74708L10.3498 9.98267L10.1142 10.2771L9.52521 10.0121L8.55343 9.5704L7.52276 9.09923L6.43319 8.59862L3.16447 7.09678L2.28104 6.68451L1.75098 6.44892L1.78042 6.27224L2.01601 5.80107L2.1338 5.77162L3.31171 6.18389L6.28595 7.24401L8.3473 7.98021L8.61233 8.06855L8.2884 7.27346L7.72889 5.80107L7.08104 4.12254L6.90435 3.65138L6.9338 3.56303L7.43441 3.26855Z" fill="#595AD2" stroke="#595AD2" stroke-width="0.25"/>
<path d="M24.397 8.42188H24.5442L24.6326 8.65746L24.7504 8.95194V9.09918L24.2792 9.33476L23.3074 9.80592L22.4829 10.1887L22.0117 10.4243L21.3639 10.7188L20.8927 10.9544L20.2449 11.2489L19.8031 11.455L18.5369 12.0734L18.5074 12.1029L18.9786 12.309L19.5381 12.5446L19.9798 12.7507L21.8939 13.6047L22.7479 13.9875L22.8657 14.0759L22.7185 14.6648L22.6301 14.6943L21.57 14.3998L17.8301 13.3102L16.1222 12.8096L15.9455 12.7507L15.916 12.2501V11.6022L16.1516 11.4845L17.3295 11.0427L20.0976 10.0121L22.9541 8.95194L24.3087 8.45132L24.397 8.42188Z" fill="#595AD2" stroke="#595AD2" stroke-width="0.25"/>
<path d="M2.8408 9.51172L3.10583 9.57061L4.63712 10.0123L8.96595 11.2786L9.46656 11.4258L9.58436 11.5436L9.64325 12.5743L9.49601 12.6626L7.61135 13.3694L4.69601 14.459L1.81012 15.5191L1.10337 15.7841L0.956135 15.7547L0.779448 15.2541L0.75 15.1068L1.22117 14.8712L2.81135 14.1056L3.63589 13.7228L4.54877 13.281L5.37331 12.8982L6.55123 12.3387L7.02239 12.1326L6.66902 11.9559L5.63834 11.5142L4.60767 11.043L3.40031 10.5129L2.66411 10.189L2.69356 9.98288L2.8408 9.51172Z" fill="#595AD2" stroke="#595AD2" stroke-width="0.25"/>
<path d="M9.67279 0H9.82003L10.409 1.20736L10.7918 2.0319L11.2335 2.94479L11.6163 3.76933L12.0581 4.68221L12.2642 5.15337L12.382 5.4773L12.7059 6.1546L12.7648 6.18405L13.0887 5.4773L13.5599 4.41718L13.8249 3.79877L14.0311 3.35706L14.5906 2.12025L14.6789 1.91411L14.944 1.94356L15.3268 2.06135L15.3562 2.14969L14.7378 4.26994L14.0311 6.71411L13.4421 8.71656L13.3832 8.80491L12.6765 8.8638H12.2936L12.1464 8.51043L11.6752 7.21472L11.2335 6.03681L10.7329 4.68221L10.144 3.09202L9.52555 1.4135L9.11328 0.323926V0.206135L9.61389 0.0294479L9.67279 0Z" fill="#595AD2" stroke="#595AD2" stroke-width="0.25"/>
<path d="M14.0607 20.0244H14.8853L15.5037 20.1128L16.2104 20.3189L16.7994 20.5839L17.3 20.8784L17.7122 21.1729L18.0362 21.4379L18.3306 21.7029L18.5662 21.9091L18.6546 21.9974L18.5957 22.1447L18.3306 22.4391L18.154 22.6747L18.0362 22.6158L17.6828 22.3213L17.1527 21.9385L16.7699 21.7029L16.2987 21.4674L15.857 21.3201L15.3859 21.2318H14.5319L13.8251 21.3496L12.8828 21.5852L11.8227 21.9385L10.4975 22.4097L9.29016 22.822L8.23004 23.1164L7.72942 23.2048L7.55273 22.5864V22.4391L7.75887 22.3508L8.55396 22.0858L9.58464 21.644L10.5564 21.1729L11.381 20.7901L12.176 20.4661L12.8828 20.2305L13.5601 20.0833L14.0607 20.0244Z" fill="#595AD2" stroke="#595AD2" stroke-width="0.25"/>
</g>
</g>
<defs>
<clipPath id="clip0_11678_1161">
<rect width="24" height="24" fill="white" transform="translate(0.75)"/>
</clipPath>
<clipPath id="clip1_11678_1161">
<rect width="24" height="24" fill="white" transform="translate(0.75)"/>
</clipPath>
</defs>
</svg>
