<svg width="14" height="17" viewBox="0 0 14 17" fill="none" xmlns="http://www.w3.org/2000/svg">
<path d="M10.0443 3.81112C9.74581 3.47527 9.63385 3.02746 9.7458 2.61698L10.119 1.38551C10.1563 1.27356 10.1563 1.16161 10.0817 1.04966C10.007 0.975025 9.89507 0.900391 9.78312 0.900391C8.92483 0.900391 8.10385 1.27356 7.5441 1.90795C7.05898 2.46771 6.79776 3.13941 6.79776 3.88576V5.67698C6.79776 6.27405 6.34995 6.79649 5.79019 6.87112C5.45434 6.90844 5.1558 6.79649 4.9319 6.57259C4.708 6.34868 4.55873 6.05015 4.55873 5.75161V4.48283C4.55873 4.33356 4.44678 4.18429 4.29751 4.14698C4.14824 4.10966 3.99898 4.14698 3.88702 4.25893C2.0958 6.31137 1.2002 8.3638 1.2002 10.2297C1.2002 13.5136 3.88702 16.2004 7.17093 16.2004C10.4548 16.2004 13.1417 13.5136 13.1417 10.2297C13.1417 7.72941 11.4624 5.34112 10.0443 3.81112ZM7.17093 15.454C4.29751 15.454 1.94654 13.1031 1.94654 10.2297C1.94654 8.81161 2.58093 7.16966 3.81239 5.52771V5.75161C3.81239 6.27405 4.03629 6.79649 4.40946 7.13234C4.78263 7.50551 5.30507 7.65478 5.82751 7.61746C6.76044 7.54283 7.50678 6.68454 7.50678 5.71429V3.88576C7.50678 3.326 7.69337 2.80356 8.06654 2.39307C8.36507 2.05722 8.77556 1.796 9.22337 1.68405L9.0741 2.39307C8.88751 3.06478 9.03678 3.77381 9.5219 4.29624C10.828 5.75161 12.3953 7.95332 12.3953 10.2297C12.3953 13.1031 10.0443 15.454 7.17093 15.454Z" fill="white"/>
<path d="M10.0443 3.81112L9.78312 4.03502M10.0443 3.81112C9.74581 3.47527 9.63385 3.02746 9.7458 2.61698L10.119 1.38551C10.1563 1.27356 10.1563 1.16161 10.0817 1.04966C10.007 0.975025 9.89507 0.900391 9.78312 0.900391C8.92483 0.900391 8.10385 1.27356 7.5441 1.90795C7.05898 2.46771 6.79776 3.13941 6.79776 3.88576V5.67698C6.79776 6.27405 6.34995 6.79649 5.79019 6.87112C5.45434 6.90844 5.1558 6.79649 4.9319 6.57259C4.708 6.34868 4.55873 6.05015 4.55873 5.75161V4.48283C4.55873 4.33356 4.44678 4.18429 4.29751 4.14698C4.14824 4.10966 3.99898 4.14698 3.88702 4.25893C2.0958 6.31137 1.2002 8.3638 1.2002 10.2297C1.2002 13.5136 3.88702 16.2004 7.17093 16.2004C10.4548 16.2004 13.1417 13.5136 13.1417 10.2297C13.1417 7.72941 11.4624 5.34112 10.0443 3.81112ZM7.17093 15.454C4.29751 15.454 1.94654 13.1031 1.94654 10.2297C1.94654 8.81161 2.58093 7.16966 3.81239 5.52771V5.75161C3.81239 6.27405 4.03629 6.79649 4.40946 7.13234C4.78263 7.50551 5.30507 7.65478 5.82751 7.61746C6.76044 7.54283 7.50678 6.68454 7.50678 5.71429V3.88576C7.50678 3.326 7.69337 2.80356 8.06654 2.39307C8.36507 2.05722 8.77556 1.796 9.22337 1.68405L9.0741 2.39307C8.88751 3.06478 9.03678 3.77381 9.5219 4.29624C10.828 5.75161 12.3953 7.95332 12.3953 10.2297C12.3953 13.1031 10.0443 15.454 7.17093 15.454Z" stroke="white" stroke-width="0.45"/>
</svg>
