<svg width="25" height="24" viewBox="0 0 25 24" fill="none" xmlns="http://www.w3.org/2000/svg">
<path d="M20.11 8.0896C20.11 8.5096 20.08 8.9196 20.03 9.3096C19.57 9.1096 19.07 8.9996 18.54 8.9996C17.32 8.9996 16.24 9.58959 15.57 10.4896C14.89 9.58959 13.81 8.9996 12.59 8.9996C10.54 8.9996 8.88 10.6696 8.88 12.7396C8.88 15.4196 10.3 17.4696 11.88 18.8596C11.83 18.8896 11.78 18.8996 11.73 18.9196C11.43 19.0296 10.93 19.0296 10.63 18.9196C8.04 18.0296 2.25 14.3496 2.25 8.0896C2.25 5.3296 4.46999 3.09961 7.20999 3.09961C8.83999 3.09961 10.28 3.8796 11.18 5.0896C12.09 3.8796 13.53 3.09961 15.15 3.09961C17.89 3.09961 20.11 5.3296 20.11 8.0896Z" stroke="#9CA3AF" stroke-width="1.5" stroke-linecap="round" stroke-linejoin="round"/>
<path d="M22.2499 12.74C22.2499 17.42 17.9199 20.18 15.9799 20.84C15.7499 20.92 15.3799 20.92 15.1499 20.84C14.3199 20.56 13.0499 19.89 11.8799 18.86C10.2999 17.47 8.87988 15.42 8.87988 12.74C8.87988 10.67 10.5399 9 12.5899 9C13.8099 9 14.8899 9.58999 15.5699 10.49C16.2399 9.58999 17.3199 9 18.5399 9C19.0699 9 19.5699 9.11 20.0299 9.31C21.3399 9.89 22.2499 11.2 22.2499 12.74Z" stroke="#9CA3AF" stroke-width="1.5" stroke-linecap="round" stroke-linejoin="round"/>
</svg>
